<svg width="21" height="24" viewBox="0 0 21 24" fill="none" xmlns="http://www.w3.org/2000/svg">
<path d="M1.0015 23.2103L18.3265 23.2336C18.7055 23.2253 19.0658 23.0674 19.3287 22.7943C19.5916 22.5213 19.7358 22.1553 19.7298 21.7763V18.0736C19.7295 17.7027 19.5918 17.345 19.3434 17.0697C19.0949 16.7943 18.7532 16.6208 18.3843 16.5826C18.4093 16.4986 18.422 16.4111 18.4225 16.3201V15.7351H18.6775C19.1569 15.7351 19.6166 15.5446 19.9556 15.2057C20.2946 14.8667 20.485 14.4069 20.485 13.9276V8.59131C20.4633 7.97706 19.945 7.44831 19.2783 7.49406H19.2745C18.9885 7.51659 18.7216 7.64649 18.5274 7.85766C18.3332 8.06884 18.226 8.34566 18.2275 8.63256C18.2275 8.15406 17.9253 7.70781 17.4603 7.55106C17.5185 7.00916 17.4687 6.46108 17.3136 5.93858C17.1586 5.41607 16.9015 4.92951 16.5571 4.50707C16.2127 4.08463 15.7879 3.73472 15.3074 3.47758C14.8268 3.22044 14.3 3.06119 13.7575 3.00906C13.2302 2.30682 12.5467 1.73691 11.7611 1.3444C10.9756 0.951893 10.1094 0.747559 9.23125 0.747559C8.35308 0.747559 7.48694 0.951893 6.70136 1.3444C5.91579 1.73691 5.23231 2.30682 4.705 3.00906C3.87269 3.09687 3.08678 3.43578 2.45162 3.98078C1.81646 4.52579 1.36211 5.2511 1.1489 6.06042C0.935687 6.86974 0.973697 7.72477 1.25788 8.51197C1.54207 9.29918 2.05899 9.98132 2.74 10.4678C2.7355 10.5451 2.7355 10.6253 2.7355 10.7003C2.74486 11.4975 3.04919 12.263 3.58975 12.8491C2.54441 13.6881 1.70149 14.7519 1.12357 15.9613C0.545656 17.1708 0.247589 18.4949 0.251503 19.8353V22.4603C0.251503 22.6592 0.33052 22.85 0.471173 22.9906C0.611825 23.1313 0.80259 23.2103 1.0015 23.2103ZM17.0905 8.24181C17.1675 8.24352 17.2422 8.26893 17.3043 8.31456L17.3065 8.30556C17.407 8.37306 17.4723 8.48856 17.4775 8.61756V11.9926C17.4775 12.4201 17.8375 12.7651 18.265 12.7426C18.67 12.7201 18.9775 12.3751 18.9775 11.9701V8.63256C18.9775 8.43006 19.1275 8.25756 19.33 8.24256C19.5475 8.22756 19.7275 8.40006 19.735 8.61756V13.9276C19.735 14.5126 19.2625 14.9851 18.6775 14.9851H17.6725V16.3201C17.6725 16.4101 17.5975 16.4851 17.5075 16.4851H16.705C16.615 16.4851 16.54 16.4101 16.54 16.3201V14.9851H15.535C14.95 14.9851 14.4775 14.5126 14.4775 13.9276V8.61756C14.4775 8.41356 14.635 8.25006 14.8345 8.24256H14.8465C15.0505 8.25756 15.2013 8.43006 15.2013 8.63256V11.9926C15.2013 12.1351 15.2418 12.2693 15.3115 12.3826L15.325 12.3616C15.46 12.6001 15.7218 12.7583 16.015 12.7426C16.42 12.7201 16.7275 12.3751 16.7275 11.9701V8.61756C16.7275 8.41131 16.8888 8.24631 17.0905 8.24181ZM14.4775 15.3938C14.7764 15.61 15.1346 15.7291 15.5035 15.7351C15.603 15.8851 15.697 16.0393 15.7855 16.1978V16.3088C15.7855 16.4251 15.808 16.5398 15.85 16.6463C15.8825 16.7303 15.9258 16.8073 15.9798 16.8773V18.1876H15.8575C15.8251 18.1874 15.7928 18.1914 15.7615 18.1996C15.3085 18.2461 14.9185 18.6136 14.905 19.0988C14.899 19.2803 14.9455 19.4483 15.0273 19.5916C14.9433 19.7334 14.8986 19.8951 14.8976 20.06C14.8967 20.2248 14.9396 20.387 15.022 20.5298C14.94 20.6718 14.8971 20.833 14.8974 20.997C14.8978 21.161 14.9416 21.3219 15.0243 21.4636C14.9772 21.5462 14.9435 21.6358 14.9245 21.7291H14.4775V15.3938ZM18.2298 18.9376V21.7336L15.7848 21.7298C15.8264 21.6904 15.8585 21.6419 15.8785 21.5881C15.8985 21.5343 15.9059 21.4766 15.9001 21.4196C15.8943 21.3625 15.8755 21.3075 15.8451 21.2588C15.8147 21.2101 15.7735 21.1691 15.7248 21.1388C15.7001 21.1234 15.68 21.1017 15.6665 21.0761C15.6529 21.0504 15.6464 21.0216 15.6475 20.9926C15.6475 20.9341 15.6798 20.8756 15.7315 20.8426C15.7846 20.8082 15.8281 20.7609 15.858 20.7052C15.8879 20.6495 15.9033 20.5871 15.9026 20.5238C15.9019 20.4606 15.8853 20.3985 15.8542 20.3435C15.8231 20.2884 15.7786 20.2421 15.7248 20.2088C15.7001 20.1934 15.68 20.1717 15.6665 20.1461C15.6529 20.1204 15.6464 20.0916 15.6475 20.0626C15.6475 20.0041 15.6798 19.9456 15.7315 19.9126C15.7832 19.8792 15.8259 19.8336 15.8558 19.7799C15.8857 19.7261 15.9019 19.6658 15.903 19.6043C15.9041 19.5428 15.8901 19.482 15.8621 19.4272C15.8342 19.3724 15.7932 19.3253 15.7428 19.2901C15.7158 19.2716 15.6938 19.2468 15.6785 19.218C15.6633 19.1891 15.6552 19.157 15.655 19.1243V19.1198C15.6573 19.0396 15.736 18.9451 15.8575 18.9451C15.8827 18.9451 15.9078 18.9426 15.9325 18.9376H18.2298ZM16.735 17.2501H17.4715V18.1876H16.735V17.2501ZM12.9303 16.9276C12.9303 17.1001 12.796 17.2351 12.6243 17.2351H5.845C5.80461 17.2354 5.76456 17.2276 5.7272 17.2122C5.68984 17.1969 5.65592 17.1742 5.62742 17.1456C5.59893 17.1169 5.57643 17.0829 5.56125 17.0455C5.54607 17.008 5.5385 16.968 5.539 16.9276V13.1491C5.57116 13.0657 5.58818 12.9774 5.58925 12.8881C5.80175 12.7766 6.01925 12.6751 6.24175 12.5836V15.8101C6.24175 16.1401 6.62425 16.3426 6.90175 16.1476L8.37625 15.1126L8.782 15.4748L8.785 15.4771C8.9101 15.5874 9.07118 15.6483 9.238 15.6483C9.40482 15.6483 9.56591 15.5874 9.691 15.4771L10.1035 15.1096L11.5818 16.1476C11.8593 16.3426 12.2418 16.1476 12.2418 15.8026V12.5836C12.4718 12.6786 12.6963 12.7836 12.9153 12.8986C12.9153 12.9471 12.9203 12.9946 12.9303 13.0411V16.9276ZM8.16175 12.9871C8.5165 13.0771 8.88925 13.1251 9.27175 13.1251C9.63125 13.1246 9.9775 13.0846 10.3105 13.0051C10.1328 13.3568 9.7375 13.6201 9.2425 13.6201C8.73175 13.6201 8.33125 13.3463 8.16175 12.9871ZM2.67625 16.2226C3.03051 15.5826 3.47648 14.9979 4 14.4871V21.7141L1.7515 21.7111L1.75 19.8383C1.74597 18.5741 2.06479 17.3298 2.67625 16.2233M6.27175 21.7171V19.7251C6.27175 19.5151 6.43675 19.3501 6.64525 19.3501H11.8323C12.0415 19.3501 12.2058 19.5226 12.2133 19.7251V21.7253L6.27175 21.7171ZM9.8905 14.2651C9.82589 14.3416 9.75623 14.4138 9.682 14.4811L9.23875 14.8763L8.79625 14.4811C8.72025 14.4126 8.64975 14.3398 8.58475 14.2628C9.00804 14.4048 9.46597 14.4056 9.88975 14.2651M6.226 5.85756C6.43375 5.76306 6.631 5.63481 6.8035 5.47506H7.9615C8.51451 5.84994 9.16691 6.05104 9.835 6.05256H10.798C10.7455 6.05756 10.692 6.06506 10.6375 6.07506C10.525 6.09006 10.45 6.20256 10.4725 6.31506C10.4875 6.42756 10.6 6.50256 10.7125 6.48006C11.2825 6.37056 11.8008 6.63006 11.8915 6.67581L11.905 6.68256C11.9425 6.70506 11.9725 6.71256 12.01 6.71256C12.085 6.71256 12.1525 6.67506 12.1825 6.61506C12.2425 6.51756 12.205 6.39006 12.1075 6.33006C11.8231 6.17665 11.5106 6.08226 11.1888 6.05256H12.3025C12.3288 6.05256 12.454 6.06306 12.565 6.14481C12.6535 6.21081 12.7923 6.36531 12.7975 6.77406L12.784 7.10106L13.0968 7.16481C13.2945 7.20484 13.4714 7.31406 13.5958 7.47286C13.7202 7.63166 13.7838 7.82962 13.7753 8.03115C13.7668 8.23268 13.6867 8.42458 13.5494 8.57235C13.4121 8.72011 13.2266 8.81406 13.0263 8.83731L12.715 8.87331L12.6955 9.18531C12.574 11.1053 11.0958 12.3751 9.2725 12.3751C7.44775 12.3751 5.9635 11.1038 5.84875 9.18456L5.83075 8.87556L5.52325 8.83506C5.32554 8.80914 5.14331 8.71434 5.00859 8.56733C4.87387 8.42032 4.79531 8.23051 4.78671 8.0313C4.77811 7.83208 4.84003 7.63622 4.96157 7.47814C5.08312 7.32007 5.25651 7.20992 5.45125 7.16706L5.75875 7.09956L5.74 6.65481C5.74825 6.15606 6.00925 5.96781 6.1255 5.90481C6.15585 5.89324 6.18541 5.87971 6.214 5.86431L6.217 5.86206L6.226 5.85756Z" fill="#666666"/>
</svg>
