<svg width="28" height="29" viewBox="0 0 28 29" fill="none" xmlns="http://www.w3.org/2000/svg">
<path d="M7.15068 17.0836L6.28508 20.315L3.12133 20.382C2.17583 18.6283 1.63953 16.6218 1.63953 14.4896C1.63953 12.4278 2.14096 10.4835 3.02977 8.77148H3.03045L5.84708 9.28787L7.08093 12.0876C6.82269 12.8405 6.68194 13.6487 6.68194 14.4896C6.68203 15.4023 6.84736 16.2768 7.15068 17.0836Z" fill="#FBBB00"/>
<path d="M26.2897 12.1668C26.4325 12.919 26.5069 13.6957 26.5069 14.4896C26.5069 15.3798 26.4133 16.2481 26.235 17.0857C25.6298 19.9358 24.0482 22.4246 21.8573 24.1858L21.8566 24.1852L18.3089 24.0041L17.8068 20.8697C19.2606 20.0171 20.3967 18.6829 20.9952 17.0857H14.3466V12.1668H21.0922H26.2897Z" fill="#518EF8"/>
<path d="M21.8566 24.1852L21.8573 24.1859C19.7265 25.8986 17.0198 26.9234 14.0733 26.9234C9.3382 26.9234 5.22142 24.2768 3.12134 20.382L7.15069 17.0837C8.20071 19.886 10.904 21.8809 14.0733 21.8809C15.4355 21.8809 16.7117 21.5127 17.8068 20.8698L21.8566 24.1852Z" fill="#28B446"/>
<path d="M22.0097 4.91838L17.9817 8.21604C16.8483 7.50761 15.5086 7.09837 14.0733 7.09837C10.8323 7.09837 8.07841 9.18475 7.08099 12.0876L3.03047 8.77148H3.02979C5.09913 4.78176 9.26782 2.05591 14.0733 2.05591C17.0901 2.05591 19.8563 3.13055 22.0097 4.91838Z" fill="#F14336"/>
</svg>
